
<svg xmlns="http://www.w3.org/2000/svg" version="1.1" xmlns:xlink="http://www.w3.org/1999/xlink" preserveAspectRatio="none" x="0px" y="0px" width="1080px" height="1080px" viewBox="0 0 1080 1080">
<defs>
<g id="Layer1_0_FILL">
<path fill="#FFFFFF" stroke="none" d="
M 1049.45 539.95
Q 1049.45 328.95 900.25 179.75 751 30.55 540 30.55 329 30.55 179.8 179.75 30.55 328.95 30.55 539.95 30.55 750.95 179.8 900.2 329 1049.4 540 1049.4 751 1049.4 900.25 900.2 1049.45 750.95 1049.45 539.95
M 876.9 203.15
Q 1016.45 342.7 1016.45 539.95 1016.45 737.3 876.9 876.85 737.35 1016.4 540 1016.4 342.75 1016.4 203.2 876.85 63.65 737.3 63.65 539.95 63.65 342.7 203.2 203.15 342.75 63.6 540 63.6 737.35 63.6 876.9 203.15
M 519 686.75
L 499.9 686.75 499.9 723.45
Q 499.9 731.6 502.95 737.7 506 743.8 511.55 747 511.7 747.05 511.85 747.15 517.15 750.1 524.15 750.1 530.25 750.1 535.25 747.6 535.7 747.4 536.2 747.15 540.5 744.75 543.15 740.9
L 543.15 749.5 562.3 749.5 562.3 686.75 543.15 686.75 543.15 720.85
Q 543.15 727.1 539.95 730.6 536.65 734.05 531.05 734.05 525.6 734.05 522.2 730.6 519 727.1 519 720.85
L 519 686.75
M 604.05 685.9
Q 594.75 685.9 587.6 689.9 580.4 693.8 576.35 701.05 572.4 708.4 572.4 718.2 572.4 727.95 576.45 735.2 580.5 742.55 587.65 746.45 594.85 750.35 604.05 750.35 611.7 750.35 617.95 747.55 624 744.8 628.15 739.8 632.3 734.9 633.85 728.75
L 613.4 728.75
Q 610.6 734.8 603.4 734.8 598.6 734.8 595.25 731.6 591.95 728.6 591.5 722.8
L 634.95 722.8
Q 635.35 719.85 635.35 717.1 635.35 707.7 631.35 700.65 627.35 693.55 620.25 689.75 613.2 685.9 604.05 685.9
M 612.25 704.25
Q 615.65 707.15 615.65 712.05
L 591.65 712.05
Q 592.45 706.9 595.7 704.15 599.05 701.3 603.9 701.3 608.9 701.3 612.25 704.25
M 395.3 686.75
L 376.1 686.75 376.1 749.5 395.3 749.5 395.3 720.4
Q 395.3 712.65 399 709.55 402.55 706.5 409.75 706.5
L 415.05 706.5 415.05 686.15
Q 408.8 686.15 403.8 689.1 398.75 692.1 395.3 697.3
L 395.3 686.75
M 459.65 688.25
Q 455 686.15 449.05 686.15 441.25 686.15 434.7 690.3 428.15 694.35 424.25 701.65 420.35 708.9 420.35 718.3 420.35 727.55 424.25 734.9 428.15 742.15 434.6 746.3 441.2 750.25 448.75 750.25 454.75 750.25 459.45 747.95 464.05 745.5 467.3 741.6
L 467.3 779.35 486.6 764.45 486.6 686.75 467.3 686.75 467.3 693.95
Q 464.4 690.3 459.65 688.25
M 465.35 709.7
Q 467.3 713.05 467.3 718.2 467.3 723.2 465.35 726.7 463.4 730.2 460.2 731.85 457 733.65 453.65 733.65 450.25 733.65 447.1 731.85 443.9 730.2 441.95 726.7 439.95 723.35 439.95 718.3 439.95 713.2 441.95 709.7 443.9 706.25 447.1 704.5 450.25 702.75 453.65 702.75 457.1 702.75 460.2 704.5 463.4 706.25 465.35 709.7
M 602.5 590.1
L 594 590.1 594 620.15
Q 594 627.25 596.8 632.15 599.5 637.15 604.35 639.65 609.05 642.1 615.05 642.1 620.35 642.1 624.65 639.9 629 637.7 631.5 633.8
L 631.5 641.35 640 641.35 640 590.1 631.5 590.1 631.5 618.3
Q 631.5 626.3 627.55 630.55 623.65 634.75 616.75 634.75 610.15 634.75 606.3 630.7 602.5 626.55 602.5 619
L 602.5 590.1
M 558.65 589.2
Q 551.15 589.2 545.4 592.45 539.6 595.75 536.5 601.65 533.3 607.7 533.3 615.65 533.3 623.6 536.6 629.6 539.75 635.7 545.55 638.95 551.3 642.25 558.65 642.25 567.85 642.25 574 637.55 580.2 632.95 582.2 625.55
L 573 625.55
Q 571.6 629.85 567.85 632.4 564.2 635.05 558.65 635.05 551.95 635.05 547.2 630.75 542.45 626.45 541.95 618.9
L 583 618.9
Q 583.3 616.2 583.3 613.75 583.3 606.75 580.2 601.1 577.2 595.6 571.6 592.4 566 589.2 558.65 589.2
M 572.3 603.6
Q 574.4 607.15 574.4 611.95
L 542.1 611.95
Q 542.75 604.65 547.25 600.6 551.8 596.45 558.25 596.45 562.7 596.45 566.45 598.25 570.1 600.1 572.3 603.6
M 501.7 589.1
Q 495.6 589.1 490.7 592.15 485.7 595.1 483.55 600.6 481.1 594.95 476.1 592.05 471.2 589.1 464.75 589.1 459.6 589.1 455.35 591.3 451.1 593.4 448.6 597.45
L 448.6 590.1 440.1 590.1 440.1 641.35 448.6 641.35 448.6 613.15
Q 448.6 605 452.5 600.8 456.4 596.5 463.1 596.5 469.55 596.5 473.3 600.6 477.15 604.65 477.15 612.35
L 477.15 641.35 485.55 641.35 485.55 613.15
Q 485.55 605 489.45 600.8 493.35 596.5 500 596.5 506.55 596.5 510.3 600.6 514.1 604.65 514.1 612.35
L 514.1 641.35 522.55 641.35 522.55 611.2
Q 522.55 604 519.8 599 517.05 594.1 512.4 591.6 507.7 589.1 501.7 589.1
M 323.65 685.9
Q 315.9 685.9 309.6 689.9 303.35 693.8 299.7 701.05 296 708.4 296 718.05 296 727.7 299.7 735.05 303.35 742.4 309.6 746.45 315.9 750.35 323.55 750.35 330.2 750.35 335.15 747.7 340.15 744.95 342.95 740.6
L 342.95 749.5 362.25 749.5 362.25 686.75 342.95 686.75 342.95 695.65
Q 340.3 691.3 335.35 688.65 330.35 685.9 323.65 685.9
M 315.6 718.05
Q 315.6 710.8 319.55 706.75 323.55 702.7 329.3 702.7 335 702.7 339 706.8 342.95 710.95 342.95 718.2 342.95 725.4 339 729.45 335 733.65 329.3 733.65 323.55 733.65 319.55 729.45 315.6 725.25 315.6 718.05
M 260.85 686.15
Q 254.2 686.15 248.65 689.35 243.05 692.7 239.75 697.85 236.65 692.25 231.05 689.2 225.5 686.15 218.4 686.15 212.45 686.15 207.7 688.4 203.05 690.75 200.05 694.75
L 200.05 686.75 180.9 686.75 180.9 749.5 200.05 749.5 200.05 715.4
Q 200.05 709.4 203.35 706.05 206.55 702.75 212.1 702.75 217.75 702.75 220.95 706.05 224.1 709.4 224.1 715.4
L 224.1 749.5 243.3 749.5 243.3 715.4
Q 243.3 709.4 246.5 706.05 249.6 702.75 255.3 702.75 260.85 702.75 264.1 706.05 267.3 709.4 267.3 715.4
L 267.3 749.5 286.35 749.5 286.35 712.8
Q 286.35 700.25 279.5 693.25 272.55 686.15 260.85 686.15
M 886.8 689.9
Q 879.4 685.9 870.2 685.9 861 685.9 853.6 689.9 846.15 693.8 841.9 701.1 837.6 708.45 837.6 718.2 837.6 727.95 841.8 735.2 846 742.55 853.45 746.45 860.75 750.35 869.95 750.35 879.15 750.35 886.65 746.45 894.05 742.55 898.45 735.15 902.7 727.8 902.7 718.2 902.7 708.45 898.5 701.1 894.2 693.8 886.8 689.9
M 879.3 729.75
Q 875.5 733.75 869.95 733.75 864.5 733.75 860.85 729.75 857.15 725.7 857.15 718.2 857.15 710.5 860.85 706.5 864.6 702.55 870.2 702.55 875.75 702.55 879.5 706.6 883.2 710.55 883.2 718.2 883.2 725.7 879.3 729.75
M 793.35 686.75
L 793.35 749.5 812.55 749.5 812.55 720.4
Q 812.55 712.65 816.2 709.55 819.8 706.5 827 706.5
L 832.3 706.5 832.3 686.15
Q 826.05 686.15 821.05 689.1 816 692.1 812.55 697.3
L 812.55 686.75 793.35 686.75
M 718.85 685.9
Q 709.6 685.9 702.4 689.9 695.25 693.8 691.2 701.05 687.2 708.4 687.2 718.2 687.2 727.95 691.25 735.2 695.3 742.55 702.5 746.45 709.65 750.35 718.85 750.35 726.5 750.35 732.75 747.55 738.85 744.8 742.95 739.8 747.1 734.9 748.65 728.75
L 728.25 728.75
Q 725.4 734.8 718.25 734.8 713.4 734.8 710.05 731.6 706.8 728.6 706.3 722.8
L 749.75 722.8
Q 750.15 719.85 750.15 717.1 750.15 707.7 746.15 700.65 742.2 693.55 735.1 689.75 728 685.9 718.85 685.9
M 718.7 701.3
Q 723.7 701.3 727.05 704.25 730.5 707.15 730.5 712.05
L 706.45 712.05
Q 707.25 706.9 710.5 704.15 713.9 701.3 718.7 701.3
M 648.45 671.55
L 648.45 686.75 640.8 686.75 640.8 702.75 648.45 702.75 648.45 727.7
Q 648.45 739.25 654.3 744.4 660.15 749.5 670.6 749.5
L 680.35 749.5 680.35 733.2 673.45 733.2
Q 670.35 733.2 669.05 732 667.6 730.75 667.6 727.95
L 667.6 702.75 680.25 702.75 680.25 686.75 667.6 686.75 667.7 656.65 648.45 671.55
M 779.4 686.75
L 760.2 686.75 760.2 749.5 779.4 749.5 779.4 686.75
M 758.4 669.9
Q 758.4 674.35 761.7 677.35 764.8 680.3 769.9 680.3 774.8 680.3 778.1 677.35 781.25 674.35 781.25 669.9 781.25 665.5 778.1 662.5 774.8 659.55 769.9 659.55 764.8 659.55 761.7 662.5 758.4 665.5 758.4 669.9
M 742.2 575.7
Q 755.55 574.45 756.15 555.65 753.8 508 727.2 464.15 737.9 357.75 682.5 297.6 641.8 253.3 567 251.1 563.9 240.35 540 239.6 516.15 240.35 513 251.1 438.2 253.3 397.5 297.6 342.1 357.75 352.8 464.15 326.2 508 323.85 555.65 324.5 574.45 337.8 575.7 348.45 576 360.05 565.8 430 500.65 540 500.95 650 500.65 719.95 565.8 731.6 576 742.2 575.7
M 540 431.55
Q 454.15 431.25 370.2 463 449.35 422.9 540 422.8 630.65 422.9 709.8 463 625.9 431.25 540 431.55 Z"/>
</g>
</defs>

<g transform="matrix( 1, 0, 0, 1, 0,0) ">
<use xlink:href="#Layer1_0_FILL"/>
</g>
</svg>
